<svg xmlns="http://www.w3.org/2000/svg" width="34" height="34" viewBox="0 0 34 34">
    <path fill="#FFF" fill-rule="nonzero" d="M17 0C7.62 0 0 7.62 0 17c0 8.515 6.28 15.561 14.46 16.79l.887.135V20.529h-4.016v-2.72h4.016v-3.612c0-2.224.534-3.688 1.418-4.607.883-.92 2.188-1.383 4.005-1.383 1.453 0 2.018.088 2.555.154v2.226h-1.89a2.774 2.774 0 0 0-2.411 1.396c-.457.798-.6 1.75-.6 2.72v3.104h4.732l-.42 2.72h-4.311v13.419l.877-.12C27.597 32.701 34 25.598 34 17c0-9.38-7.62-17-17-17zm0 1.545c8.544 0 15.455 6.91 15.455 15.455 0 7.518-5.382 13.702-12.485 15.094V22.073h4.09l.898-5.811H19.97v-1.56c0-.8.147-1.52.394-1.95.247-.432.486-.62 1.07-.62h3.437v-5.17l-.67-.09c-.464-.063-1.522-.21-3.43-.21-2.09 0-3.883.569-5.12 1.856-1.238 1.287-1.85 3.204-1.85 5.68v2.065H9.787v5.811h4.016v9.972C6.813 30.566 1.545 24.437 1.545 17 1.545 8.456 8.455 1.545 17 1.545z"/>
</svg>
