<svg xmlns="http://www.w3.org/2000/svg" width="34" height="34" viewBox="0 0 34 34">
    <path fill="#FFF" fill-rule="nonzero" d="M10.045 0C4.507 0 0 4.507 0 10.045v13.91C0 29.493 4.507 34 10.045 34h13.91C29.493 34 34 29.493 34 23.955v-13.91C34 4.507 29.493 0 23.955 0h-13.91zm0 1.545h13.91c4.703 0 8.5 3.797 8.5 8.5v13.91c0 4.703-3.797 8.5-8.5 8.5h-13.91a8.489 8.489 0 0 1-8.5-8.5v-13.91c0-4.703 3.797-8.5 8.5-8.5zm16.228 4.637a1.545 1.545 0 1 0 0 3.09 1.545 1.545 0 0 0 0-3.09zM17 8.5c-4.685 0-8.5 3.815-8.5 8.5 0 4.685 3.815 8.5 8.5 8.5 4.685 0 8.5-3.815 8.5-8.5 0-4.685-3.815-8.5-8.5-8.5zm0 1.545A6.943 6.943 0 0 1 23.955 17 6.943 6.943 0 0 1 17 23.955 6.943 6.943 0 0 1 10.045 17 6.943 6.943 0 0 1 17 10.045z"/>
</svg>
