<svg id="Capa_1" data-name="Capa 1" xmlns="http://www.w3.org/2000/svg" xmlns:xlink="http://www.w3.org/1999/xlink" viewBox="0 0 1522 269.7"><defs><style>.cls-1,.cls-5{fill:none;}.cls-2{fill:#fffdf3;}.cls-3,.cls-6{fill:#8b171a;}.cls-4{fill:url(#Degradado_sin_nombre_31);}.cls-5,.cls-6,.cls-7,.cls-8{fill-rule:evenodd;}.cls-7{fill:#fcf9ef;}.cls-8{fill:#c4a776;}.cls-9{fill:url(#Degradado_sin_nombre_112);}.cls-10{fill:url(#Degradado_sin_nombre_115);}.cls-11{fill:url(#Degradado_sin_nombre_112-2);}.cls-12{clip-path:url(#clip-path);}.cls-13{fill:#af171a;}</style><linearGradient id="Degradado_sin_nombre_31" x1="190.85" y1="32" x2="190.85" y2="301.7" gradientUnits="userSpaceOnUse"><stop offset="0" stop-color="#fffdf3"/><stop offset="1" stop-color="#f6eed2"/></linearGradient><linearGradient id="Degradado_sin_nombre_112" x1="138.06" y1="120.06" x2="113.86" y2="78.15" gradientUnits="userSpaceOnUse"><stop offset="0" stop-color="#67171a"/><stop offset="1" stop-color="#96171a"/></linearGradient><linearGradient id="Degradado_sin_nombre_115" x1="113.86" y1="255.55" x2="138.06" y2="213.63" gradientUnits="userSpaceOnUse"><stop offset="0" stop-color="#96171a"/><stop offset="1" stop-color="#67171a"/></linearGradient><linearGradient id="Degradado_sin_nombre_112-2" x1="219.4" y1="166.85" x2="279.87" y2="166.85" xlink:href="#Degradado_sin_nombre_112"/><clipPath id="clip-path" transform="translate(-56 -32)"><path class="cls-1" d="M101.83,141V98.68A23.54,23.54,0,0,1,136.56,78l37.09,20a70.67,70.67,0,0,0-7.6-.42A69.35,69.35,0,0,0,101.83,141Zm64.22,95.12a69.35,69.35,0,0,1-64.22-43.39V235a23.5,23.5,0,0,0,34.73,20.71l37.09-20.05A68.18,68.18,0,0,1,166.05,236.1ZM269.84,150,219.4,122.76a69.11,69.11,0,0,1,0,88.18l50.44-27.26a19.14,19.14,0,0,0,0-33.66Z"/></clipPath></defs><title>LOGOTIPO UPLAY HORIZONTAL (uso sobre dorado)</title><path class="cls-2" d="M445.39,202.29a29.87,29.87,0,1,1-59.73,0V102.38h18.46v98.11c0,9,4.89,13.39,11.41,13.39s11.4-4.35,11.4-13.39V102.38h18.46Z" transform="translate(-56 -32)"/><path class="cls-2" d="M465.67,102.38h17.74L511.28,180h.36V102.38h18.47V231.26H512.73L484.5,153.78h-.37v77.48H465.67Z" transform="translate(-56 -32)"/><path class="cls-2" d="M550.93,102.38h18.46V231.26H550.93Z" transform="translate(-56 -32)"/><path class="cls-2" d="M627.13,231.26H610.84L584.59,102.38h19.55l14.66,90h.37l14.84-90h19.55Z" transform="translate(-56 -32)"/><path class="cls-2" d="M668.23,102.38h55v17.38H686.69v37.83h31.85V175H686.69v37.82h36.56v18.47h-55Z" transform="translate(-56 -32)"/><path class="cls-2" d="M738.82,102.38H768.5c21.9,0,32.59,12.85,32.59,37.83,0,14.85-4.17,25.7-15.93,32.22l19.91,58.83H785.52l-17.2-55h-11v55H738.82Zm18.46,57.56h10.5c12.85,0,14.84-7.24,14.84-20.09,0-13-2.17-20.09-15.74-20.09h-9.6Z" transform="translate(-56 -32)"/><path class="cls-2" d="M879.28,139.49H860.82v-4.16c0-8.51-3.62-15.57-13-15.57-10.14,0-12.49,8.14-12.49,16.65,0,10,.91,13.4,10.5,17.19l14.12,5.62c16.29,6.15,19.36,16.47,19.36,35.29,0,21.72-8,37.83-31.85,37.83-17.92,0-31.5-13.21-31.5-30.59v-6.88H834.4v5.8c0,6.69,3.62,13.21,13,13.21,12.49,0,13.39-7.42,13.39-19.19,0-13.75-1.63-15.93-10.68-19.54l-13.21-5.43c-15.93-6.52-20.09-17-20.09-33.13,0-19.54,10.5-35.29,31.67-35.29,18.47,0,30.77,14.84,30.77,29.14Z" transform="translate(-56 -32)"/><path class="cls-2" d="M897.21,102.38h18.46V231.26H897.21Z" transform="translate(-56 -32)"/><path class="cls-2" d="M949.34,119.76H928V102.38h61.18v17.38H967.8v111.5H949.34Z" transform="translate(-56 -32)"/><path class="cls-2" d="M1011.42,102.38h15.39l28.78,128.88h-18.46l-5.43-27.7h-25.16l-5.43,27.7H982.65Zm7.79,37.11h-.36l-9.05,46.7h18.46Z" transform="translate(-56 -32)"/><path class="cls-2" d="M1068.26,102.38H1098c21.9,0,32.58,12.85,32.58,37.83,0,14.85-4.16,25.7-15.93,32.22l19.91,58.83H1115l-17.19-55h-11v55h-18.47Zm18.47,57.56h10.5c12.85,0,14.84-7.24,14.84-20.09,0-13-2.17-20.09-15.75-20.09h-9.59Z" transform="translate(-56 -32)"/><path class="cls-2" d="M1149.54,102.38H1168V231.26h-18.46Z" transform="translate(-56 -32)"/><path class="cls-2" d="M1188.46,132.79c0-21,15.93-31.49,31-31.49s30.95,10.5,30.95,31.49v68.06c0,21-15.93,31.49-30.95,31.49s-31-10.5-31-31.49Zm18.46,68.06c0,8.87,5.79,13,12.49,13s12.49-4.16,12.49-13V132.79c0-8.87-5.79-13-12.49-13s-12.49,4.16-12.49,13Z" transform="translate(-56 -32)"/><path class="cls-3" d="M1304.85,180.76h-12.13v50.5h-20.27V102.38h32.4c23.35,0,33.12,12.31,33.12,39.28S1328.2,180.76,1304.85,180.76Zm-.72-60.1h-11.41v41.82h11.41c10.85,0,13.57-7.79,13.57-20.82S1315,120.66,1304.13,120.66Z" transform="translate(-56 -32)"/><path class="cls-3" d="M1359.16,231.26V102.38h20.27V213h33.85v18.28Z" transform="translate(-56 -32)"/><path class="cls-3" d="M1488.22,231.26,1483,205.74H1453.1L1448,231.26h-21.35l31.67-128.88h19.73l31.31,128.88Zm-20.1-97.75-11,53.94h22.09Z" transform="translate(-56 -32)"/><path class="cls-3" d="M1553,180.76v50.5h-20.27v-50.5l-25-78.38h22.45l12.67,51,12.85-51H1578Z" transform="translate(-56 -32)"/><path class="cls-4" d="M273.71,32H108A52.14,52.14,0,0,0,56,84V249.71a52.14,52.14,0,0,0,52,52H273.71a52.15,52.15,0,0,0,52-52V84a52.14,52.14,0,0,0-52-52Z" transform="translate(-56 -32)"/><path class="cls-5" d="M166.05,102.63a64.22,64.22,0,1,1-64.22,64.22,64.4,64.4,0,0,1,64.22-64.22" transform="translate(-56 -32)"/><path class="cls-6" d="M166,102.63a64.22,64.22,0,1,1-64.21,64.22A64.41,64.41,0,0,1,166,102.63m-32.1,80.28a32.11,32.11,0,0,0,64.21,0V129.12H182.09v56.19a16.05,16.05,0,1,1-32.1,0V129.12H133.94ZM166,110.66a56.19,56.19,0,1,0,56.18,56.19A56.35,56.35,0,0,0,166,110.66" transform="translate(-56 -32)"/><path class="cls-7" d="M166,110.66a56.19,56.19,0,1,1-56.19,56.19A56.35,56.35,0,0,1,166,110.66M166,215h0a32.2,32.2,0,0,0,32.11-32.1V129.12H182.09v56.19a16.05,16.05,0,1,1-32.1,0V129.12H133.94v53.79A32.19,32.19,0,0,0,166,215" transform="translate(-56 -32)"/><polygon class="cls-8" points="45.83 134.85 45.83 134.85 45.83 134.84 45.83 134.85"/><path class="cls-8" d="M197.07,223l-1.14.62Z" transform="translate(-56 -32)"/><path class="cls-8" d="M195.88,110l1.23.67Z" transform="translate(-56 -32)"/><path class="cls-9" d="M166.05,97.6a70.67,70.67,0,0,1,7.6.42L136.56,78a23.54,23.54,0,0,0-34.73,20.7V141A69.35,69.35,0,0,1,166.05,97.6Z" transform="translate(-56 -32)"/><path class="cls-10" d="M166.05,236.1a69.35,69.35,0,0,1-64.22-43.39V235a23.5,23.5,0,0,0,34.73,20.71l37.09-20.05A68.18,68.18,0,0,1,166.05,236.1Z" transform="translate(-56 -32)"/><path class="cls-11" d="M269.84,150,219.4,122.76a69.11,69.11,0,0,1,0,88.18l50.44-27.26a19.14,19.14,0,0,0,0-33.66Z" transform="translate(-56 -32)"/><g class="cls-12"><path class="cls-13" d="M166.16,241.38a74.58,74.58,0,0,1-73.67-86.45A74.61,74.61,0,0,1,178,93.29h0a74.53,74.53,0,0,1-11.8,148.09Zm-.23-147.89a73.37,73.37,0,1,0,11.85,1A74.24,74.24,0,0,0,165.93,93.49Z" transform="translate(-56 -32)"/><path class="cls-13" d="M166.17,246.6a80.51,80.51,0,0,1-9.66-.58A79.74,79.74,0,0,1,175.59,87.68h0a79.75,79.75,0,0,1-9.42,158.92Zm-.24-158.06a78.35,78.35,0,1,0,9.49.57A79.75,79.75,0,0,0,165.93,88.54Z" transform="translate(-56 -32)"/><path class="cls-13" d="M166.17,251.93q-3.63,0-7.28-.3a85,85,0,1,1,7.28.3Zm-.23-168.46a83.51,83.51,0,1,0,7.13.31C170.68,83.58,168.3,83.47,165.94,83.47Z" transform="translate(-56 -32)"/><path class="cls-13" d="M166.1,257.36c-1.6,0-3.21,0-4.83-.13a90.42,90.42,0,1,1,4.83.13Zm-.1-179a88.45,88.45,0,1,0,4.73.12C169.14,78.36,167.56,78.32,166,78.32Z" transform="translate(-56 -32)"/><path class="cls-13" d="M166.1,262.87l-2.44,0a96,96,0,0,1,4.78-192h0a96,96,0,0,1-2.34,192ZM166,73.08a93.79,93.79,0,1,0,2.37,0Z" transform="translate(-56 -32)"/><path class="cls-13" d="M166.05,268.45a101.6,101.6,0,1,1,101.59-101.6A101.72,101.72,0,0,1,166.05,268.45Zm0-200.68a99.08,99.08,0,1,0,99.06,99.08A99.2,99.2,0,0,0,166.05,67.77Z" transform="translate(-56 -32)"/><path class="cls-13" d="M166.05,275A108.14,108.14,0,1,1,274.17,166.85,108.26,108.26,0,0,1,166.05,275Zm0-213.58A105.45,105.45,0,1,0,271.49,166.85,105.57,105.57,0,0,0,166.05,61.4Z" transform="translate(-56 -32)"/></g></svg>