<svg xmlns="http://www.w3.org/2000/svg" width="34" height="29" viewBox="0 0 34 29">
    <path fill="#FFF" fill-rule="nonzero" d="M23.254.469a7.377 7.377 0 0 0-7.37 7.37c0 .244.061.483.085.722-5.025-.48-9.47-2.902-12.488-6.605a.683.683 0 0 0-.587-.258.676.676 0 0 0-.539.342 7.312 7.312 0 0 0-.998 3.696c0 1.633.584 3.128 1.486 4.354-.175-.077-.366-.12-.53-.212a.678.678 0 0 0-.999.594v.085c0 2.504 1.296 4.678 3.207 6.011-.02-.003-.042.005-.063 0a.68.68 0 0 0-.765.871c.76 2.36 2.697 4.163 5.097 4.821a12.699 12.699 0 0 1-6.52 1.806c-.518 0-1.014-.027-1.508-.085a.678.678 0 0 0-.73.446c-.109.302.01.64.284.807a19.601 19.601 0 0 0 10.62 3.122c6.342 0 11.318-2.65 14.655-6.436 3.337-3.785 5.076-8.702 5.076-13.295 0-.194-.016-.383-.021-.574 1.245-.953 2.357-2.07 3.228-3.377a.678.678 0 0 0-.85-.998c-.35.157-.759.172-1.125.297.483-.645.897-1.34 1.147-2.124a.681.681 0 0 0-.998-.786c-1.16.688-2.446 1.171-3.802 1.466-1.317-1.232-3.05-2.06-4.992-2.06zm0 1.36c1.734 0 3.3.74 4.397 1.91.165.17.406.242.637.192a13.989 13.989 0 0 0 2.549-.765 6.05 6.05 0 0 1-1.742 1.593.679.679 0 0 0 .446 1.274c.68-.082 1.285-.358 1.933-.53a12.908 12.908 0 0 1-1.911 1.699.677.677 0 0 0-.277.594c.011.276.022.55.022.829 0 4.247-1.63 8.86-4.737 12.382-3.106 3.523-7.667 5.99-13.635 5.99-2.711 0-5.27-.6-7.583-1.657 2.868-.22 5.512-1.235 7.646-2.91a.679.679 0 0 0-.403-1.21c-2.24-.04-4.118-1.344-5.119-3.186h.106c.672 0 1.336-.085 1.954-.255a.681.681 0 0 0 .492-.675.682.682 0 0 0-.534-.642c-2.419-.489-4.232-2.459-4.652-4.906.685.236 1.386.422 2.146.446a.68.68 0 0 0 .403-1.253 6.018 6.018 0 0 1-2.676-5.013c0-.775.202-1.487.467-2.166 3.399 3.73 8.156 6.207 13.53 6.478a.68.68 0 0 0 .7-.828 6.066 6.066 0 0 1-.17-1.381c0-3.33 2.682-6.01 6.011-6.01z"/>
</svg>
